<svg width="16" height="16" viewBox="0 0 16 16" fill="none" xmlns="http://www.w3.org/2000/svg">
<g clip-path="url(#clip0_228_512)">
<path d="M16 12L14.6 5.3C14.4 4.6 13.7 4 12.9 4H11V2.8C11 1.8 10.2 1 9.19999 1H6.79999C5.79999 1 4.99999 1.8 4.99999 2.8V4H3.09999C2.29999 4 1.59999 4.6 1.39999 5.3L-6.90669e-06 12C-0.200007 13 0.599993 14 1.69999 14H14.2C15.4 14 16.2 13 16 12ZM5.99999 2.8C5.99999 2.4 6.39999 2 6.79999 2H9.19999C9.59999 2 9.99999 2.4 9.99999 2.8V4H5.99999V2.8ZM11 10H8.99999V12H6.99999V10H4.99999V8H6.99999V6H8.99999V8H11V10Z" fill="white"/>
</g>
<defs>
<clipPath id="clip0_228_512">
<rect width="16" height="16" fill="white"/>
</clipPath>
</defs>
</svg>
